<?xml version="1.0" encoding="utf-8"?>
<!-- Generator: Adobe Illustrator 23.0.2, SVG Export Plug-In . SVG Version: 6.00 Build 0)  -->
<svg version="1.1" id="Layer_1" xmlns="http://www.w3.org/2000/svg" xmlns:xlink="http://www.w3.org/1999/xlink" x="0px" y="0px"
	 viewBox="0 0 1700 792.3" style="enable-background:new 0 0 1700 792.3;" xml:space="preserve">
<style type="text/css">
	.st0{fill-rule:evenodd;clip-rule:evenodd;fill:#1D1D1B;}
	.st1{fill:#1D1D1B;}
</style>
<g>
	<path class="st0" d="M576.8,276.2h20.8c11,0,20,9,20,20v161.7V488v9.6c0,11-9,20-20,20h-19.4c-11,0-20,9-20,20V557c0,11-9,20-20,20
		h-19.1c-11,0-20,9-20,20v19.1c0,11-9,20-20,20H279c-11,0-20-9-20-20v-19.4c0-11-9-20-20-20h-19.4c-11,0-20-9-20-20v-19.5
		c0-11-9-20-20-20h-20.8c-11,0-20-9-20-20v-9.6v-29.8V296.2c0-11,9-20,20-20h19.4c11,0,20-9,20-20v-19.4c0-11,9-20,20-20h19.4
		c11,0,20-9,20-20v-19.4c0-11,9-20,20-20h200c11,0,20,9,20,20v19.4c0,11,9,20,20,20H537c11,0,20,9,20,20v19.4
		C556.8,267.2,565.8,276.2,576.8,276.2L576.8,276.2z M369.6,424.3h17.3c10.2,0,18.9-8.3,18.9-18.9v-17.3c0-10.2-8.7-18.9-18.9-18.9
		h-17.3c-10.2,0-18.9,8.7-18.9,18.9v17.3C350.7,415.6,359.3,424.3,369.6,424.3z"/>
	<path class="st1" d="M1362.6,373.6V158.4h87.9c36.6,0,64.1,9.3,82.4,28.1c18.6,18.6,27.8,45.3,28.1,79.8c0.3,34.8-9,61.2-27.3,79.8
		c-18.6,18.6-46.1,27.6-83,27.6L1362.6,373.6L1362.6,373.6z M1446.4,320.3c18.6,0,32.2-4.6,41.2-14.2s13.3-22.9,13.3-40
		s-4.4-30.8-13.3-40c-9-9.6-22.6-14.2-41.2-14.2h-27v108.8h27V320.3z"/>
	<path class="st1" d="M765.8,638.8c-22.6,0-41.5-3.2-56.6-9.3s-26.4-15.1-33.7-26.4s-11-24.7-11-39.7h61.2c0,5.8,1.5,10.7,4.6,15.4
		c3.2,4.4,7.5,7.8,13.6,10.4c5.8,2.3,13.3,3.8,21.8,3.8c12.8,0,22.9-1.7,30.5-5.5c7.5-3.5,11.3-9.6,11.3-18.3c0-6.1-2.3-10.4-7-13.3
		c-4.6-2.9-10.4-4.6-18-5.8c-7.3-0.9-16.5-1.5-28.1-1.5c-27.9,0-49-5.2-63.5-16c-14.5-10.7-21.8-26.4-21.8-47.3
		c0-13.9,3.8-26.1,11.3-36.6c7.5-10.4,18.6-18.6,33.1-24.1s32.2-8.4,52.8-8.4c31.9,0,56.3,6.1,73.1,18.6S865,465,865,488.2h-59.5
		c0-8.1-3.2-14.8-9.3-19.7c-6.4-4.9-15.7-7.5-27.8-7.5c-12.2,0-21.2,2-27.6,5.8s-9.3,9.3-9.3,15.7c0,4.6,1.5,8.4,4.4,10.7
		s7.3,4.4,12.8,5.2c5.5,1.2,13.6,1.7,24.1,2h8.1c17.7,0.3,33.1,2.6,46.4,7s24.1,11,32.2,20.6s12.2,21.8,12.2,37.1
		c0,24.1-8.7,42.4-26.4,54.8C827.3,632.4,800.9,638.8,765.8,638.8L765.8,638.8z"/>
	<path class="st1" d="M905.6,635V419.5h56.9v82.1h83.5v-82.1h56.9V635H1046v-80.9h-83.5V635H905.6z"/>
	<path class="st1" d="M1147.9,635V419.5h110.8c15.1,0,27.9,2.9,38.9,9c10.7,6.1,19.1,14.8,25.2,26.1c6.1,11.6,9,25.2,9,41.5
		c0,15.7-2.9,29.3-9,40.3s-14.5,19.4-25.2,25.2c-11,5.8-23.8,8.7-38.9,8.7h-54V635H1147.9z M1239.6,523.9c11.6,0,20-2.3,25.8-7
		c5.8-4.6,8.7-11.3,8.7-20.6c0-8.7-2.9-15.7-8.7-20.3s-14.5-7-25.8-7h-34.8v54.8L1239.6,523.9L1239.6,523.9z"/>
	<path class="st1" d="M1034.7,313.3c-8.7,7.3-20.9,11-36.3,11.3c-17.1,0-30.5-4.9-39.7-15.1c-9.3-10.2-13.9-24.7-13.9-43.8
		c0-18.6,4.6-33.1,13.9-43.2c9.3-10.2,22.6-15.1,40-15.1c15.1,0.3,27.3,4.1,36,11.6c6.4,5.5,11,13.1,13.6,22h61.5
		c-3.2-26.4-13.3-47-30.5-61.8c-19.1-16.5-46.1-24.7-80.6-24.7c-37.1,0-65.6,9.6-85,28.7s-29.3,46.7-29.3,82.7
		c-0.3,36.6,9.3,64.1,28.7,83s47.9,28.4,85.3,28.4c35.1,0,62.1-8.1,81.2-24.7c16.8-14.8,27-35.4,30.2-62.4h-61.2
		C1046.1,300.2,1041.4,307.8,1034.7,313.3L1034.7,313.3z"/>
	<path class="st1" d="M854.3,331.9h-22c-3.2,0-6.1-2.6-6.1-5.8v-15.4c0-2.9-1.2-5.5-3.2-7.5c0.9-0.6,1.7-0.9,2.9-1.5
		c10.7-5.8,19.1-14.2,25.2-25.2s9-24.7,9-40.3c0-16.2-2.9-29.9-9-41.5c-6.1-11.3-14.5-20-25.2-26.1c-11-6.1-23.8-9-38.9-9H676.2
		v215.5H733v-64.7h36.6v21.8c0,6.4,5.5,11.6,11.9,11.6h25.8c2.9,0.6,4.9,2.9,4.9,5.8V365c0,6.4,2.6,11.6,9,11.6H854
		c6.7,0,11.9-5.2,11.9-11.6v-21.2C866.2,337.1,860.7,331.9,854.3,331.9L854.3,331.9z M733,264v-54.8h34.8c11.3,0,20,2.3,25.8,7
		c5.8,4.6,8.7,11.6,8.7,20.3c0,9.3-2.9,16-8.7,20.6c-5.8,4.6-14.2,7-25.8,7H733V264z"/>
	<path class="st1" d="M1324.6,331.9h-22c-3.2,0-6.1-2.6-6.1-5.8v-15.4c0-2.9-1.2-5.5-2.9-7.5c0.9-0.6,2-0.9,2.9-1.5
		c10.7-5.8,19.1-14.2,25.2-25.2s9-24.7,9-40.3c0-16.2-2.9-29.9-9-41.5c-6.1-11.3-14.5-20-25.2-26.1c-11-6.1-23.8-9-38.9-9h-110.8
		v215.5h56.9v-64.7h36.3v21.8c0,6.4,5.5,11.6,11.9,11.6h25.8c2.9,0.6,4.9,2.9,4.9,5.8V365c0,6.4,2.6,11.6,9,11.6h32.8
		c6.7,0,11.9-5.2,11.9-11.6v-21.2C1336.7,337.1,1331.2,331.9,1324.6,331.9L1324.6,331.9z M1203.6,264v-54.8h34.8
		c11.3,0,20,2.3,25.8,7c5.8,4.6,8.7,11.6,8.7,20.3c0,9.3-2.9,16-8.7,20.6c-5.8,4.6-14.2,7-25.8,7h-34.8V264z"/>
</g>
</svg>
